<svg width="228" height="103" viewBox="0 0 228 103" fill="none" xmlns="http://www.w3.org/2000/svg">
<g clip-path="url(#clip0_1_32)">
<path d="M40.6694 96.0157C38.0697 100.068 33.9497 102.992 28.9788 103C21.1719 103 14.4862 91.2285 12.7742 83.5611C13.6465 85.3428 23.7701 94.3026 21.6243 96.0632C19.9462 97.4308 27.0052 99.284 24.9834 100.057C23.0219 100.845 21.7204 100.233 23.3038 99.2163C24.9308 98.18 19.4279 98.2527 20.8074 96.9041C22.8646 94.9004 13.035 90.035 14.2764 87.4449C14.74 86.4704 13.2266 85.9734 12.7742 83.5611C12.6403 82.4971 12.5536 81.4486 12.5064 80.4081C12.5064 80.0217 12.5064 79.6198 12.467 79.257C11.9629 67.7588 12.2367 56.2397 13.2863 44.7781C13.3883 43.6817 13.6899 42.613 14.1765 41.625C14.7164 40.4387 15.5889 39.4348 16.688 38.7351C17.7872 38.0355 19.0657 37.6702 20.3684 37.6836H20.7229C22.5312 37.8007 24.2287 38.5964 25.476 39.9117C26.7233 41.227 27.4285 42.9649 27.4505 44.7781C27.5135 53.6857 27.033 62.5773 27.0251 71.4849C27.0251 73.4478 26.8596 75.8597 26.8439 78.3191C26.8439 82.2604 27.2299 86.3043 29.4278 88.8268C30.1625 89.57 31.0931 90.0888 32.1112 90.3234C33.1294 90.558 34.1931 90.4983 35.1786 90.151C38.3297 89.0634 39.0466 85.0591 41.7722 83.2929C42.0903 83.0962 42.4656 83.0121 42.8372 83.0554C43.2093 83.0983 43.5557 83.2652 43.8206 83.5296L43.8756 83.5771C44.0961 83.7978 44.2607 84.0682 44.356 84.3654C45.585 88.2277 42.6781 92.8627 40.6694 96.0157Z" fill="url(#paint0_linear_1_32)"/>
<path style="mix-blend-mode:color-burn" d="M43.7391 83.4998C43.6287 83.7987 43.5186 84.0976 43.4007 84.3806C41.0401 90.2091 35.5321 95.0698 29.2374 95.1014C24.296 95.1014 19.6771 92.1833 16.7108 88.2349C14.7476 85.4988 13.2997 82.4286 12.4382 79.1738C11.9239 67.6988 12.1868 56.2023 13.225 44.7625C13.3269 43.6682 13.6283 42.6021 14.1142 41.6164C14.6535 40.4327 15.5249 39.431 16.6228 38.7328C17.7207 38.0347 18.9977 37.6703 20.2987 37.6837H20.6528C22.459 37.8004 24.1546 38.5944 25.4004 39.9068C26.6462 41.2193 27.3505 42.9535 27.3725 44.7625C27.4355 53.6504 26.9555 62.5227 26.9476 71.4105C26.9476 73.3692 26.7824 75.7761 26.7666 78.23C26.7666 82.1625 27.1522 86.1976 29.3475 88.7145C30.0814 89.4561 31.0109 89.9741 32.0278 90.2078C33.0447 90.442 34.1072 90.3823 35.0915 90.0359C38.2389 88.9504 38.9549 84.9548 41.6774 83.1929C41.9953 82.9966 42.3702 82.9129 42.7414 82.9558C43.1126 82.9982 43.4586 83.1652 43.7231 83.4287L43.7391 83.4998Z" fill="url(#paint1_linear_1_32)"/>
<path d="M28.2331 27.066C28.2335 27.5748 28.1812 28.0823 28.0772 28.5804C27.8249 29.7893 27.2664 30.9129 26.4554 31.8435C26.2181 32.1253 25.9572 32.3864 25.6758 32.6241C24.6658 33.4783 23.4418 34.0398 22.1361 34.2478C21.7573 34.3107 21.3739 34.342 20.9899 34.3415C19.5493 34.3431 18.1407 33.9168 16.9421 33.1165C15.7435 32.3163 14.8089 31.1781 14.2565 29.846C13.7041 28.5138 13.5588 27.0476 13.8389 25.6327C14.119 24.2179 14.812 22.918 15.8301 21.8975C16.8482 20.877 18.1458 20.1818 19.5586 19.8999C20.9714 19.6179 22.436 19.7618 23.7671 20.3135C25.0982 20.8651 26.236 21.7996 27.0365 22.9988C27.837 24.198 28.2643 25.608 28.2643 27.0504L28.2331 27.066Z" fill="url(#paint2_linear_1_32)"/>
<path style="mix-blend-mode:color-burn" d="M28.2327 28.5927C27.9774 29.799 27.4123 30.9202 26.5918 31.8488C26.3517 32.13 26.0878 32.3906 25.803 32.6278C24.7811 33.4802 23.5426 34.0405 22.2215 34.2481C21.8382 34.3107 21.4503 34.342 21.0618 34.3415C19.5622 34.3403 18.0986 33.8872 16.8667 33.0427C15.6347 32.1984 14.693 31.0029 14.1674 29.616C13.6417 28.2291 13.5572 26.7169 13.925 25.2813C14.2929 23.8457 15.0956 22.5551 16.226 21.582C15.7991 23.0972 15.8906 24.7092 16.4863 26.1679C17.0819 27.6265 18.1485 28.8502 19.5204 29.6492C20.8924 30.4482 22.493 30.7777 24.074 30.5867C25.655 30.3957 27.1279 29.6947 28.2643 28.5927H28.2327Z" fill="url(#paint3_linear_1_32)"/>
<path d="M29.7731 14.2887C29.7733 14.5225 29.7493 14.7557 29.7015 14.9846C29.5855 15.5402 29.3289 16.0566 28.9562 16.4843C28.8471 16.6138 28.7272 16.7338 28.5978 16.8431C28.1336 17.2356 27.5711 17.4937 26.9711 17.5893C26.797 17.6182 26.6208 17.6325 26.4443 17.6323C25.7823 17.633 25.1348 17.4371 24.584 17.0694C24.0332 16.7016 23.6036 16.1785 23.3498 15.5663C23.0959 14.954 23.0291 14.2802 23.1579 13.63C23.2866 12.9797 23.6051 12.3823 24.073 11.9133C24.5409 11.4443 25.1372 11.1248 25.7865 10.9953C26.4358 10.8657 27.1089 10.9318 27.7206 11.1853C28.3324 11.4388 28.8553 11.8683 29.2232 12.4195C29.5911 12.9706 29.7875 13.6186 29.7875 14.2815L29.7731 14.2887Z" fill="url(#paint4_linear_1_32)"/>
<path style="mix-blend-mode:color-burn" d="M29.773 14.9903C29.6556 15.5447 29.3959 16.06 29.0188 16.4867C28.9084 16.616 28.7872 16.7357 28.6563 16.8447C28.1866 17.2365 27.6175 17.494 27.0103 17.5894C26.8341 17.6182 26.6559 17.6325 26.4774 17.6323C25.7881 17.6317 25.1155 17.4235 24.5493 17.0354C23.9831 16.6474 23.5504 16.098 23.3088 15.4606C23.0672 14.8232 23.0284 14.1282 23.1974 13.4684C23.3665 12.8087 23.7354 12.2155 24.2549 11.7683C24.0587 12.4647 24.1008 13.2055 24.3745 13.8759C24.6483 14.5462 25.1384 15.1087 25.769 15.4758C26.3995 15.843 27.1351 15.9945 27.8617 15.9067C28.5883 15.8189 29.2652 15.4968 29.7874 14.9903H29.773Z" fill="url(#paint5_linear_1_32)"/>
<path d="M18.0711 16.4129C18.0712 16.5604 18.056 16.7076 18.0259 16.852C17.9527 17.2026 17.7907 17.5284 17.5555 17.7983C17.4867 17.88 17.4111 17.9558 17.3294 18.0247C17.0365 18.2724 16.6816 18.4353 16.3029 18.4956C16.1931 18.5138 16.0819 18.5229 15.9706 18.5228C15.5528 18.5232 15.1443 18.3996 14.7967 18.1675C14.4491 17.9354 14.178 17.6053 14.0179 17.219C13.8577 16.8327 13.8155 16.4075 13.8968 15.9972C13.978 15.5869 14.1789 15.2099 14.4742 14.914C14.7695 14.618 15.1457 14.4164 15.5554 14.3346C15.9652 14.2529 16.3899 14.2946 16.7759 14.4546C17.1619 14.6146 17.4919 14.8856 17.7241 15.2334C17.9562 15.5811 18.0801 15.99 18.0801 16.4083L18.0711 16.4129Z" fill="url(#paint6_linear_1_32)"/>
<path style="mix-blend-mode:color-burn" d="M18.071 16.8556C17.9969 17.2054 17.833 17.5306 17.5951 17.7999C17.5254 17.8814 17.4489 17.957 17.3663 18.0258C17.07 18.273 16.7108 18.4355 16.3277 18.4957C16.2166 18.5139 16.1041 18.5229 15.9914 18.5228C15.5565 18.5224 15.1321 18.391 14.7748 18.1461C14.4175 17.9012 14.1444 17.5546 13.992 17.1524C13.8396 16.7502 13.815 16.3116 13.9217 15.8953C14.0284 15.479 14.2612 15.1047 14.589 14.8225C14.4652 15.2619 14.4917 15.7294 14.6645 16.1524C14.8372 16.5754 15.1465 16.9303 15.5444 17.162C15.9422 17.3937 16.4064 17.4893 16.8649 17.4339C17.3234 17.3785 17.7505 17.1752 18.0801 16.8556H18.071Z" fill="url(#paint7_linear_1_32)"/>
<path d="M16.7766 38.8972C16.7768 39.2053 16.7452 39.5125 16.6822 39.8141C16.5294 40.546 16.1913 41.2263 15.7004 41.7896C15.5566 41.9603 15.3987 42.1182 15.2283 42.2624C14.6168 42.7795 13.8758 43.1196 13.0852 43.2453C12.8559 43.2835 12.6238 43.3024 12.3914 43.302C11.5192 43.3029 10.6663 43.0447 9.94065 42.5604C9.21499 42.0757 8.64915 41.3868 8.31475 40.5803C7.98031 39.7737 7.89234 38.8861 8.06194 38.0295C8.23153 37.1729 8.65104 36.3858 9.26744 35.7681C9.88384 35.1502 10.6694 34.7293 11.5248 34.5586C12.3801 34.3879 13.2668 34.4751 14.0727 34.809C14.8786 35.143 15.5675 35.7088 16.0521 36.4348C16.5368 37.1608 16.7955 38.0145 16.7955 38.8877L16.7766 38.8972Z" fill="url(#paint8_linear_1_32)"/>
<path style="mix-blend-mode:color-burn" d="M16.7766 39.8216C16.622 40.5518 16.2799 41.2307 15.7831 41.7929C15.6377 41.9631 15.478 42.1211 15.3055 42.2645C14.6868 42.7807 13.937 43.1196 13.1372 43.2453C12.9052 43.2835 12.6703 43.3024 12.4351 43.302C11.5272 43.3012 10.6411 43.0271 9.89523 42.5159C9.14934 42.0045 8.57921 41.2807 8.26102 40.4411C7.94278 39.6014 7.8916 38.6859 8.11431 37.8167C8.33702 36.9476 8.823 36.1662 9.50738 35.577C9.24893 36.4944 9.30432 37.4703 9.66492 38.3534C10.0256 39.2366 10.6713 39.9774 11.5019 40.4612C12.3325 40.9449 13.3016 41.1444 14.2588 41.0288C15.2159 40.9131 16.1077 40.4887 16.7957 39.8216H16.7766Z" fill="url(#paint9_linear_1_32)"/>
<path d="M10.9185 20.2037C10.9187 20.586 10.8795 20.9673 10.8013 21.3415C10.6117 22.2497 10.1922 23.0939 9.58293 23.793C9.4046 24.0047 9.20864 24.2009 8.99718 24.3794C8.2384 25.0212 7.3188 25.4431 6.33785 25.5993C6.05329 25.6465 5.76529 25.67 5.47683 25.6697C4.39452 25.6708 3.33619 25.3506 2.43572 24.7494C1.53526 24.1482 0.833115 23.2931 0.418133 22.2923C0.00315205 21.2915 -0.106023 20.1899 0.104413 19.1269C0.314849 18.064 0.835441 17.0874 1.60033 16.3208C2.36522 15.5541 3.34004 15.0318 4.40145 14.82C5.46289 14.6081 6.56321 14.7163 7.56326 15.1307C8.56327 15.5451 9.41804 16.2472 10.0195 17.1482C10.6209 18.0491 10.9419 19.1084 10.9419 20.192L10.9185 20.2037Z" fill="url(#paint10_linear_1_32)"/>
<path style="mix-blend-mode:color-burn" d="M10.9182 21.3507C10.7264 22.257 10.3019 23.0993 9.68542 23.7969C9.505 24.0082 9.30672 24.204 9.09275 24.3822C8.32502 25.0226 7.39459 25.4435 6.40205 25.5994C6.11409 25.6465 5.82269 25.67 5.53083 25.6697C4.40418 25.6687 3.30461 25.3283 2.37906 24.6939C1.45352 24.0596 0.746051 23.1614 0.351158 22.1195C-0.0437344 21.0775 -0.107249 19.9414 0.169114 18.8629C0.445478 17.7844 1.04856 16.8148 1.89778 16.0837C1.57707 17.2221 1.6458 18.4331 2.09331 19.529C2.54083 20.6248 3.3421 21.5442 4.37281 22.1444C5.40352 22.7447 6.60604 22.9923 7.79382 22.8488C8.98156 22.7052 10.0882 22.1787 10.9419 21.3507H10.9182Z" fill="url(#paint11_linear_1_32)"/>
<path d="M17.7498 4.06855C17.75 4.3519 17.7209 4.6345 17.6629 4.9118C17.5225 5.58495 17.2115 6.21061 16.7599 6.72876C16.6278 6.88566 16.4826 7.03107 16.3258 7.16342C15.7634 7.63907 15.0819 7.95173 14.3548 8.06755C14.1439 8.10253 13.9305 8.11997 13.7167 8.11972C12.9145 8.12056 12.1301 7.8832 11.4627 7.43761C10.7953 6.99202 10.2749 6.35825 9.96738 5.61648C9.65981 4.87472 9.5789 4.05831 9.73484 3.27049C9.89079 2.48267 10.2767 1.75885 10.8436 1.19064C11.4105 0.622427 12.133 0.235332 12.9196 0.0783284C13.7063 -0.0786743 14.5218 0.0014731 15.263 0.308625C16.0042 0.615776 16.6377 1.13614 17.0835 1.80387C17.5292 2.47161 17.7672 3.25671 17.7672 4.05986L17.7498 4.06855Z" fill="url(#paint12_linear_1_32)"/>
<path style="mix-blend-mode:color-burn" d="M17.7496 4.9187C17.6074 5.59035 17.2928 6.2147 16.8359 6.73172C16.7022 6.88832 16.5552 7.03344 16.3967 7.16549C15.8276 7.64013 15.138 7.95212 14.4024 8.06769C14.189 8.10258 13.973 8.11999 13.7567 8.11974C12.9217 8.11902 12.1067 7.86673 11.4208 7.39655C10.7347 6.92636 10.2104 6.26069 9.91772 5.48848C9.62506 4.71624 9.57799 3.87418 9.78281 3.07482C9.98763 2.27546 10.4346 1.55685 11.064 1.01498C10.8263 1.85869 10.8773 2.75628 11.209 3.56848C11.5406 4.38067 12.1345 5.06206 12.8984 5.50694C13.6623 5.95186 14.5536 6.13532 15.4339 6.02896C16.3143 5.9226 17.1344 5.53233 17.7672 4.9187H17.7496Z" fill="url(#paint13_linear_1_32)"/>
<path d="M54.7182 92.4898C54.4134 92.4898 54.164 92.3927 53.97 92.1985C53.776 92.0042 53.679 91.7545 53.679 91.4493V71.8877C53.679 71.5825 53.776 71.3328 53.97 71.1385C54.164 70.9443 54.4134 70.8472 54.7182 70.8472H59.6234C59.9005 70.8472 60.1361 70.9443 60.3301 71.1385C60.5518 71.3328 60.6626 71.5825 60.6626 71.8877V91.4493C60.6626 91.7545 60.5518 92.0042 60.3301 92.1985C60.1361 92.3927 59.9005 92.4898 59.6234 92.4898H54.7182ZM54.6767 67.7257C54.3718 67.7257 54.1224 67.6285 53.9284 67.4343C53.7344 67.2401 53.6375 66.9904 53.6375 66.6851V62.9809C53.6375 62.6757 53.7344 62.426 53.9284 62.2318C54.1224 62.0098 54.3718 61.8988 54.6767 61.8988H59.6234C59.9282 61.8988 60.1777 62.0098 60.3716 62.2318C60.5933 62.426 60.7042 62.6757 60.7042 62.9809V66.6851C60.7042 66.9904 60.5933 67.2401 60.3716 67.4343C60.1777 67.6285 59.9282 67.7257 59.6234 67.7257H54.6767ZM78.7515 92.906C77.1995 92.906 75.8971 92.6424 74.844 92.1152C73.8186 91.588 72.9734 90.9221 72.3083 90.1174V91.4493C72.3083 91.7545 72.1974 92.0042 71.9757 92.1985C71.7817 92.3927 71.5462 92.4898 71.269 92.4898H66.5717C66.2669 92.4898 66.0175 92.3927 65.8235 92.1985C65.6295 92.0042 65.5325 91.7545 65.5325 91.4493V63.9798C65.5325 63.6746 65.6295 63.4249 65.8235 63.2307C66.0175 63.0364 66.2669 62.9393 66.5717 62.9393H71.6432C71.948 62.9393 72.1974 63.0364 72.3914 63.2307C72.5854 63.4249 72.6824 63.6746 72.6824 63.9798V72.8866C73.3475 72.1652 74.1789 71.5825 75.1765 71.1385C76.2019 70.6668 77.3935 70.431 78.7515 70.431C80.1371 70.431 81.3565 70.6668 82.4095 71.1385C83.4903 71.5825 84.4049 72.2345 85.1531 73.0947C85.9013 73.9548 86.4833 74.9815 86.899 76.1746C87.3147 77.3677 87.5502 78.7134 87.6057 80.2118C87.6334 80.739 87.6472 81.2245 87.6472 81.6685C87.6472 82.0847 87.6334 82.5703 87.6057 83.1252C87.5502 84.679 87.3008 86.0664 86.8574 87.2873C86.4417 88.4804 85.8598 89.507 85.1115 90.3672C84.3633 91.1996 83.4626 91.8378 82.4095 92.2817C81.3565 92.6979 80.1371 92.906 78.7515 92.906ZM76.5067 87.3289C77.449 87.3289 78.1833 87.1346 78.7099 86.7462C79.2364 86.3577 79.6106 85.8305 79.8323 85.1646C80.0817 84.4987 80.2341 83.7634 80.2895 82.9587C80.3449 82.0986 80.3449 81.2384 80.2895 80.3783C80.2341 79.5736 80.0817 78.8383 79.8323 78.1724C79.6106 77.5065 79.2364 76.9793 78.7099 76.5908C78.1833 76.2024 77.449 76.0081 76.5067 76.0081C75.6476 76.0081 74.941 76.2024 74.3867 76.5908C73.8325 76.9515 73.4168 77.4371 73.1396 78.0475C72.8625 78.6302 72.7101 79.2684 72.6824 79.9621C72.6547 80.4893 72.6408 81.0026 72.6408 81.502C72.6408 82.0015 72.6547 82.5287 72.6824 83.0836C72.7101 83.8328 72.8487 84.5264 73.0981 85.1646C73.3475 85.8028 73.7493 86.33 74.3036 86.7462C74.8578 87.1346 75.5922 87.3289 76.5067 87.3289ZM99.6968 92.906C98.1172 92.906 96.7038 92.5453 95.4568 91.8239C94.2374 91.1025 93.2813 90.0481 92.5885 88.6607C91.8957 87.2456 91.5493 85.5253 91.5493 83.4998V71.8877C91.5493 71.5825 91.6463 71.3328 91.8403 71.1385C92.0342 70.9443 92.2837 70.8472 92.5885 70.8472H97.7846C98.0895 70.8472 98.3389 70.9443 98.5329 71.1385C98.7269 71.3328 98.8239 71.5825 98.8239 71.8877V83.2501C98.8239 85.9693 100.043 87.3289 102.482 87.3289C103.618 87.3289 104.519 86.982 105.184 86.2884C105.877 85.5669 106.223 84.5542 106.223 83.2501V71.8877C106.223 71.5825 106.32 71.3328 106.514 71.1385C106.708 70.9443 106.958 70.8472 107.262 70.8472H112.459C112.763 70.8472 113.013 70.9443 113.207 71.1385C113.401 71.3328 113.498 71.5825 113.498 71.8877V91.4493C113.498 91.7545 113.401 92.0042 113.207 92.1985C113.013 92.3927 112.763 92.4898 112.459 92.4898H107.636C107.359 92.4898 107.11 92.3927 106.888 92.1985C106.694 92.0042 106.597 91.7545 106.597 91.4493V89.8677C105.877 90.8666 104.935 91.6296 103.771 92.1568C102.634 92.6563 101.276 92.906 99.6968 92.906ZM131.606 92.906C130.054 92.906 128.751 92.6424 127.698 92.1152C126.673 91.588 125.828 90.9221 125.163 90.1174V91.4493C125.163 91.7545 125.052 92.0042 124.83 92.1985C124.636 92.3927 124.401 92.4898 124.123 92.4898H119.426C119.121 92.4898 118.872 92.3927 118.678 92.1985C118.484 92.0042 118.387 91.7545 118.387 91.4493V63.9798C118.387 63.6746 118.484 63.4249 118.678 63.2307C118.872 63.0364 119.121 62.9393 119.426 62.9393H124.498C124.802 62.9393 125.052 63.0364 125.246 63.2307C125.44 63.4249 125.537 63.6746 125.537 63.9798V72.8866C126.202 72.1652 127.033 71.5825 128.031 71.1385C129.056 70.6668 130.248 70.431 131.606 70.431C132.992 70.431 134.211 70.6668 135.264 71.1385C136.345 71.5825 137.259 72.2345 138.008 73.0947C138.756 73.9548 139.338 74.9815 139.753 76.1746C140.169 77.3677 140.405 78.7134 140.46 80.2118C140.488 80.739 140.502 81.2245 140.502 81.6685C140.502 82.0847 140.488 82.5703 140.46 83.1252C140.405 84.679 140.155 86.0664 139.712 87.2873C139.296 88.4804 138.714 89.507 137.966 90.3672C137.218 91.1996 136.317 91.8378 135.264 92.2817C134.211 92.6979 132.992 92.906 131.606 92.906ZM129.361 87.3289C130.303 87.3289 131.038 87.1346 131.564 86.7462C132.091 86.3577 132.465 85.8305 132.687 85.1646C132.936 84.4987 133.089 83.7634 133.144 82.9587C133.199 82.0986 133.199 81.2384 133.144 80.3783C133.089 79.5736 132.936 78.8383 132.687 78.1724C132.465 77.5065 132.091 76.9793 131.564 76.5908C131.038 76.2024 130.303 76.0081 129.361 76.0081C128.502 76.0081 127.795 76.2024 127.241 76.5908C126.687 76.9515 126.271 77.4371 125.994 78.0475C125.717 78.6302 125.565 79.2684 125.537 79.9621C125.509 80.4893 125.495 81.0026 125.495 81.502C125.495 82.0015 125.509 82.5287 125.537 83.0836C125.565 83.8328 125.703 84.5264 125.952 85.1646C126.202 85.8028 126.604 86.33 127.158 86.7462C127.712 87.1346 128.447 87.3289 129.361 87.3289ZM157.83 92.906C156.279 92.906 154.976 92.6424 153.923 92.1152C152.898 91.588 152.052 90.9221 151.387 90.1174V91.4493C151.387 91.7545 151.276 92.0042 151.055 92.1985C150.861 92.3927 150.625 92.4898 150.348 92.4898H145.651C145.346 92.4898 145.097 92.3927 144.902 92.1985C144.709 92.0042 144.612 91.7545 144.612 91.4493V63.9798C144.612 63.6746 144.709 63.4249 144.902 63.2307C145.097 63.0364 145.346 62.9393 145.651 62.9393H150.722C151.027 62.9393 151.276 63.0364 151.47 63.2307C151.664 63.4249 151.761 63.6746 151.761 63.9798V72.8866C152.427 72.1652 153.258 71.5825 154.256 71.1385C155.281 70.6668 156.473 70.431 157.83 70.431C159.216 70.431 160.435 70.6668 161.489 71.1385C162.569 71.5825 163.484 72.2345 164.232 73.0947C164.98 73.9548 165.562 74.9815 165.978 76.1746C166.394 77.3677 166.629 78.7134 166.685 80.2118C166.712 80.739 166.726 81.2245 166.726 81.6685C166.726 82.0847 166.712 82.5703 166.685 83.1252C166.629 84.679 166.38 86.0664 165.936 87.2873C165.521 88.4804 164.939 89.507 164.191 90.3672C163.442 91.1996 162.542 91.8378 161.489 92.2817C160.435 92.6979 159.216 92.906 157.83 92.906ZM155.586 87.3289C156.528 87.3289 157.262 87.1346 157.789 86.7462C158.315 86.3577 158.69 85.8305 158.911 85.1646C159.161 84.4987 159.313 83.7634 159.369 82.9587C159.424 82.0986 159.424 81.2384 159.369 80.3783C159.313 79.5736 159.161 78.8383 158.911 78.1724C158.69 77.5065 158.315 76.9793 157.789 76.5908C157.262 76.2024 156.528 76.0081 155.586 76.0081C154.727 76.0081 154.02 76.2024 153.466 76.5908C152.911 76.9515 152.496 77.4371 152.219 78.0475C151.942 78.6302 151.789 79.2684 151.761 79.9621C151.734 80.4893 151.72 81.0026 151.72 81.502C151.72 82.0015 151.734 82.5287 151.761 83.0836C151.789 83.8328 151.928 84.5264 152.177 85.1646C152.427 85.8028 152.828 86.33 153.383 86.7462C153.937 87.1346 154.671 87.3289 155.586 87.3289ZM171.875 92.4898C171.57 92.4898 171.321 92.3927 171.127 92.1985C170.933 92.0042 170.836 91.7545 170.836 91.4493V63.9798C170.836 63.6746 170.933 63.4249 171.127 63.2307C171.321 63.0364 171.57 62.9393 171.875 62.9393H176.78C177.085 62.9393 177.334 63.0364 177.528 63.2307C177.722 63.4249 177.819 63.6746 177.819 63.9798V91.4493C177.819 91.7545 177.722 92.0042 177.528 92.1985C177.334 92.3927 177.085 92.4898 176.78 92.4898H171.875ZM192.707 92.906C189.436 92.906 186.831 92.0181 184.892 90.2423C182.952 88.4665 181.94 85.8305 181.857 82.3344C181.857 82.1402 181.857 81.8905 181.857 81.5853C181.857 81.28 181.857 81.0442 181.857 80.8777C181.94 78.6857 182.425 76.8128 183.312 75.259C184.226 73.6774 185.474 72.4843 187.053 71.6796C188.66 70.8472 190.531 70.431 192.665 70.431C195.104 70.431 197.113 70.9166 198.692 71.8877C200.3 72.8588 201.505 74.1768 202.309 75.8416C203.113 77.5065 203.514 79.4071 203.514 81.5436V82.5425C203.514 82.8477 203.404 83.0975 203.182 83.2917C202.988 83.4859 202.752 83.583 202.475 83.583H189.173C189.173 83.6108 189.173 83.6524 189.173 83.7079C189.173 83.7634 189.173 83.8189 189.173 83.8744C189.201 84.679 189.339 85.4143 189.589 86.0803C189.838 86.7462 190.226 87.2734 190.753 87.6618C191.279 88.0503 191.917 88.2445 192.665 88.2445C193.219 88.2445 193.676 88.1613 194.037 87.9948C194.425 87.8006 194.743 87.5925 194.993 87.3705C195.242 87.1208 195.436 86.9127 195.575 86.7462C195.824 86.4687 196.018 86.3022 196.157 86.2467C196.323 86.1635 196.572 86.1219 196.905 86.1219H202.06C202.337 86.1219 202.558 86.2051 202.725 86.3716C202.919 86.5103 203.002 86.7184 202.974 86.9959C202.946 87.4676 202.711 88.0364 202.267 88.7023C201.824 89.3683 201.173 90.0342 200.314 90.7001C199.482 91.3383 198.429 91.8655 197.154 92.2817C195.88 92.6979 194.397 92.906 192.707 92.906ZM189.173 79.4626H196.198V79.3794C196.198 78.4915 196.06 77.7146 195.783 77.0486C195.533 76.3827 195.131 75.8694 194.577 75.5087C194.051 75.148 193.413 74.9676 192.665 74.9676C191.917 74.9676 191.279 75.148 190.753 75.5087C190.254 75.8694 189.866 76.3827 189.589 77.0486C189.312 77.7146 189.173 78.4915 189.173 79.3794V79.4626ZM216.307 92.906C214.506 92.906 212.968 92.7118 211.693 92.3233C210.446 91.9071 209.421 91.4077 208.617 90.825C207.841 90.2423 207.259 89.6457 206.871 89.0353C206.483 88.3971 206.275 87.8561 206.248 87.4121C206.22 87.1069 206.317 86.8572 206.539 86.6629C206.76 86.441 206.996 86.33 207.245 86.33H211.984C212.067 86.33 212.136 86.3439 212.192 86.3716C212.247 86.3994 212.33 86.4548 212.441 86.5381C212.802 86.7323 213.162 86.982 213.522 87.2873C213.882 87.5647 214.298 87.8144 214.769 88.0364C215.24 88.2584 215.808 88.3694 216.474 88.3694C217.249 88.3694 217.901 88.2168 218.427 87.9116C218.954 87.6063 219.217 87.1485 219.217 86.5381C219.217 86.0941 219.092 85.7334 218.843 85.456C218.594 85.1507 218.081 84.8594 217.305 84.5819C216.557 84.3045 215.42 84.027 213.896 83.7495C212.455 83.4166 211.194 82.9865 210.113 82.4593C209.033 81.9043 208.201 81.1968 207.619 80.3366C207.037 79.4487 206.746 78.3805 206.746 77.1319C206.746 76.022 207.107 74.9537 207.827 73.9271C208.548 72.9005 209.601 72.0681 210.986 71.4299C212.372 70.764 214.076 70.431 216.099 70.431C217.707 70.431 219.092 70.6252 220.256 71.0137C221.448 71.3744 222.446 71.8461 223.249 72.4288C224.081 73.0115 224.704 73.608 225.12 74.2184C225.536 74.8289 225.757 75.3838 225.785 75.8833C225.813 76.1607 225.73 76.4105 225.536 76.6324C225.342 76.8267 225.12 76.9238 224.87 76.9238H220.547C220.436 76.9238 220.326 76.9099 220.215 76.8822C220.104 76.8267 220.007 76.7712 219.924 76.7157C219.591 76.5492 219.259 76.3272 218.926 76.0497C218.594 75.7723 218.206 75.5226 217.762 75.3006C217.319 75.0786 216.765 74.9676 216.099 74.9676C215.351 74.9676 214.769 75.1341 214.354 75.4671C213.938 75.8 213.73 76.2301 213.73 76.7573C213.73 77.118 213.841 77.451 214.063 77.7562C214.312 78.0614 214.797 78.3389 215.517 78.5886C216.266 78.8383 217.416 79.1158 218.968 79.421C220.88 79.7262 222.404 80.2257 223.54 80.9193C224.676 81.5853 225.48 82.376 225.951 83.2917C226.422 84.1796 226.658 85.123 226.658 86.1219C226.658 87.4537 226.256 88.633 225.452 89.6596C224.676 90.6863 223.513 91.4909 221.961 92.0736C220.409 92.6285 218.524 92.906 216.307 92.906Z" fill="url(#paint14_linear_1_32)"/>
</g>
<defs>
<linearGradient id="paint0_linear_1_32" x1="23.2832" y1="106.019" x2="21.1299" y2="19.3958" gradientUnits="userSpaceOnUse">
<stop stop-color="#E2D4FF"/>
<stop offset="0.5" stop-color="#FFE0ED"/>
<stop offset="1" stop-color="#C2FFF1"/>
</linearGradient>
<linearGradient id="paint1_linear_1_32" x1="14.3817" y1="86.8425" x2="29.921" y2="61.2511" gradientUnits="userSpaceOnUse">
<stop stop-color="#40607A"/>
<stop offset="1" stop-color="#EAC0D2" stop-opacity="0"/>
</linearGradient>
<linearGradient id="paint2_linear_1_32" x1="22.8923" y1="105.145" x2="20.7586" y2="19.3534" gradientUnits="userSpaceOnUse">
<stop stop-color="#E2D4FF"/>
<stop offset="0.5" stop-color="#FFE0ED"/>
<stop offset="1" stop-color="#C2FFF1"/>
</linearGradient>
<linearGradient id="paint3_linear_1_32" x1="13.67" y1="27.9773" x2="28.2327" y2="27.9773" gradientUnits="userSpaceOnUse">
<stop stop-color="#40607A"/>
<stop offset="1" stop-color="#EAC0D2" stop-opacity="0"/>
</linearGradient>
<linearGradient id="paint4_linear_1_32" x1="27.3186" y1="50.1724" x2="26.338" y2="10.7441" gradientUnits="userSpaceOnUse">
<stop stop-color="#E2D4FF"/>
<stop offset="0.5" stop-color="#FFE0ED"/>
<stop offset="1" stop-color="#C2FFF1"/>
</linearGradient>
<linearGradient id="paint5_linear_1_32" x1="23.0803" y1="14.7075" x2="29.773" y2="14.7075" gradientUnits="userSpaceOnUse">
<stop stop-color="#40607A"/>
<stop offset="1" stop-color="#EAC0D2" stop-opacity="0"/>
</linearGradient>
<linearGradient id="paint6_linear_1_32" x1="16.5222" y1="39.0559" x2="15.9034" y2="14.1762" gradientUnits="userSpaceOnUse">
<stop stop-color="#E2D4FF"/>
<stop offset="0.5" stop-color="#FFE0ED"/>
<stop offset="1" stop-color="#C2FFF1"/>
</linearGradient>
<linearGradient id="paint7_linear_1_32" x1="13.8478" y1="16.6771" x2="18.071" y2="16.6771" gradientUnits="userSpaceOnUse">
<stop stop-color="#40607A"/>
<stop offset="1" stop-color="#EAC0D2" stop-opacity="0"/>
</linearGradient>
<linearGradient id="paint8_linear_1_32" x1="13.5431" y1="86.1689" x2="12.2513" y2="34.2278" gradientUnits="userSpaceOnUse">
<stop stop-color="#E2D4FF"/>
<stop offset="0.5" stop-color="#FFE0ED"/>
<stop offset="1" stop-color="#C2FFF1"/>
</linearGradient>
<linearGradient id="paint9_linear_1_32" x1="7.95992" y1="39.449" x2="16.7766" y2="39.449" gradientUnits="userSpaceOnUse">
<stop stop-color="#40607A"/>
<stop offset="1" stop-color="#EAC0D2" stop-opacity="0"/>
</linearGradient>
<linearGradient id="paint10_linear_1_32" x1="6.90605" y1="78.8631" x2="5.30299" y2="14.4094" gradientUnits="userSpaceOnUse">
<stop stop-color="#E2D4FF"/>
<stop offset="0.5" stop-color="#FFE0ED"/>
<stop offset="1" stop-color="#C2FFF1"/>
</linearGradient>
<linearGradient id="paint11_linear_1_32" x1="-0.0224676" y1="20.8884" x2="10.9182" y2="20.8884" gradientUnits="userSpaceOnUse">
<stop stop-color="#40607A"/>
<stop offset="1" stop-color="#EAC0D2" stop-opacity="0"/>
</linearGradient>
<linearGradient id="paint12_linear_1_32" x1="14.776" y1="47.5448" x2="13.5878" y2="-0.225957" gradientUnits="userSpaceOnUse">
<stop stop-color="#E2D4FF"/>
<stop offset="0.5" stop-color="#FFE0ED"/>
<stop offset="1" stop-color="#C2FFF1"/>
</linearGradient>
<linearGradient id="paint13_linear_1_32" x1="9.6408" y1="4.57603" x2="17.7496" y2="4.57603" gradientUnits="userSpaceOnUse">
<stop stop-color="#40607A"/>
<stop offset="1" stop-color="#EAC0D2" stop-opacity="0"/>
</linearGradient>
<linearGradient id="paint14_linear_1_32" x1="111.526" y1="105.274" x2="111.302" y2="40.001" gradientUnits="userSpaceOnUse">
<stop stop-color="#E2D4FF"/>
<stop offset="0.5" stop-color="#FFE0ED"/>
<stop offset="1" stop-color="#C2FFF1"/>
</linearGradient>
<clipPath id="clip0_1_32">
<rect width="228" height="103" fill="white"/>
</clipPath>
</defs>
</svg>
