<svg width="140" height="142" viewBox="0 0 140 142" fill="none" xmlns="http://www.w3.org/2000/svg">
<g clip-path="url(#clip0_236_163)">
<path d="M69.5 139C31.1162 139 0 107.884 0 69.5C0 31.1162 31.1162 0 69.5 0C107.884 0 139 31.1162 139 69.5C139 107.884 107.884 139 69.5 139Z" fill="url(#paint0_linear_236_163)"/>
<path d="M69.5 139C31.1162 139 0 107.884 0 69.5C0 31.1162 31.1162 0 69.5 0C107.884 0 139 31.1162 139 69.5C139 107.884 107.884 139 69.5 139Z" fill="url(#paint1_radial_236_163)" fill-opacity="0.5"/>
<path d="M69.5 139C31.1162 139 0 107.884 0 69.5C0 31.1162 31.1162 0 69.5 0C107.884 0 139 31.1162 139 69.5C139 107.884 107.884 139 69.5 139Z" fill="url(#paint2_radial_236_163)" fill-opacity="0.5"/>
<path d="M69.5 138.761C31.2483 138.761 0.239197 107.752 0.239197 69.5001C0.239197 31.2484 31.2483 0.239258 69.5 0.239258C107.752 0.239258 138.761 31.2484 138.761 69.5001C138.761 107.752 107.752 138.761 69.5 138.761Z" stroke="url(#paint3_linear_236_163)" stroke-opacity="0.3" stroke-width="0.478405"/>
<g filter="url(#filter0_f_236_163)">
<path d="M38.615 33.3256C35.2024 36.7659 31.1149 38.2444 29.4852 36.628C27.8556 35.0115 29.301 30.9121 32.7135 27.4717C36.1261 24.0314 40.2137 22.5529 41.8433 24.1693C43.4729 25.7858 42.0276 29.8852 38.615 33.3256Z" fill="white"/>
</g>
<g filter="url(#filter1_f_236_163)">
<path d="M103.735 108.873C98.2864 112.832 92.3493 113.948 90.4742 111.367C88.5991 108.787 91.4962 103.485 96.9449 99.5268C102.394 95.5683 108.331 94.4517 110.206 97.0326C112.081 99.6136 109.184 104.915 103.735 108.873Z" fill="#FF7A00"/>
</g>
<g filter="url(#filter2_f_236_163)">
<path d="M107.622 109.736C106.106 111.265 104.289 111.922 103.565 111.203C102.84 110.485 103.483 108.663 104.999 107.134C106.516 105.605 108.333 104.948 109.057 105.666C109.781 106.385 109.139 108.207 107.622 109.736Z" fill="white"/>
</g>
<g style="mix-blend-mode:soft-light">
<path d="M69.5 135.94C32.8061 135.94 3.05978 106.194 3.05978 69.5C3.05978 32.8061 32.8061 3.05981 69.5 3.05981C106.194 3.05981 135.94 32.8061 135.94 69.5C135.94 106.194 106.194 135.94 69.5 135.94Z" stroke="white" stroke-opacity="0.12" stroke-width="3.34884"/>
</g>
<mask id="mask0_236_163" style="mask-type:alpha" maskUnits="userSpaceOnUse" x="0" y="0" width="139" height="139">
<path d="M69.5 139C31.1162 139 0 107.884 0 69.5C0 31.1162 31.1162 0 69.5 0C107.884 0 139 31.1162 139 69.5C139 107.884 107.884 139 69.5 139Z" fill="#C4C4C4"/>
</mask>
<g mask="url(#mask0_236_163)">
<g filter="url(#filter3_f_236_163)">
<path d="M125.028 139.982C103.794 155.065 80.7811 159.127 73.6262 149.054C66.4713 138.982 77.8844 118.59 99.1179 103.506C120.351 88.4231 143.365 84.3611 150.52 94.4334C157.675 104.506 146.262 124.898 125.028 139.982Z" fill="#FF7A00"/>
</g>
<g filter="url(#filter4_f_236_163)">
<path d="M72.3979 22.5098C58.5104 20.9581 47.849 14.3597 48.5851 7.77205C49.3212 1.18436 61.176 -2.89807 75.0635 -1.34632C88.951 0.205435 99.6124 6.80376 98.8763 13.3914C98.1402 19.9791 86.2854 24.0616 72.3979 22.5098Z" fill="white"/>
</g>
<g filter="url(#filter5_f_236_163)">
<path d="M66.1561 65.4937C60.6111 68.6414 53.5644 66.698 50.4167 61.153C47.2691 55.6081 49.2125 48.5613 54.7575 45.4137C60.3024 42.266 67.3492 44.2094 70.4968 49.7544C73.6445 55.2993 71.7011 62.3461 66.1561 65.4937Z" fill="#FF7A00"/>
</g>
<g filter="url(#filter6_f_236_163)">
<path d="M41.2192 130.145C35.6743 133.293 28.6275 131.349 25.4799 125.804C22.3322 120.259 24.2756 113.213 29.8206 110.065C35.3655 106.917 42.4123 108.861 45.5599 114.406C48.7076 119.951 46.7642 126.997 41.2192 130.145Z" fill="#FF7A00"/>
</g>
<g filter="url(#filter7_f_236_163)">
<path d="M147.432 50.3422C141.887 53.4899 131.895 46.358 125.114 34.4127C118.333 22.4675 117.331 10.2322 122.876 7.08458C128.421 3.93693 138.413 11.0688 145.194 23.0141C151.975 34.9594 152.977 47.1946 147.432 50.3422Z" fill="#FF7A00"/>
</g>
</g>
</g>
<defs>
<filter id="filter0_f_236_163" x="24.5097" y="19.2088" width="22.3093" height="22.3798" filterUnits="userSpaceOnUse" color-interpolation-filters="sRGB">
<feFlood flood-opacity="0" result="BackgroundImageFix"/>
<feBlend mode="normal" in="SourceGraphic" in2="BackgroundImageFix" result="shape"/>
<feGaussianBlur stdDeviation="2.15282" result="effect1_foregroundBlur_236_163"/>
</filter>
<filter id="filter1_f_236_163" x="60.7208" y="66.46" width="79.2385" height="75.4801" filterUnits="userSpaceOnUse" color-interpolation-filters="sRGB">
<feFlood flood-opacity="0" result="BackgroundImageFix"/>
<feBlend mode="normal" in="SourceGraphic" in2="BackgroundImageFix" result="shape"/>
<feGaussianBlur stdDeviation="14.5914" result="effect1_foregroundBlur_236_163"/>
</filter>
<filter id="filter2_f_236_163" x="99.9181" y="102.026" width="12.7857" height="12.8171" filterUnits="userSpaceOnUse" color-interpolation-filters="sRGB">
<feFlood flood-opacity="0" result="BackgroundImageFix"/>
<feBlend mode="normal" in="SourceGraphic" in2="BackgroundImageFix" result="shape"/>
<feGaussianBlur stdDeviation="1.67442" result="effect1_foregroundBlur_236_163"/>
</filter>
<filter id="filter3_f_236_163" x="-2.18319" y="15.226" width="228.512" height="213.036" filterUnits="userSpaceOnUse" color-interpolation-filters="sRGB">
<feFlood flood-opacity="0" result="BackgroundImageFix"/>
<feBlend mode="normal" in="SourceGraphic" in2="BackgroundImageFix" result="shape"/>
<feGaussianBlur stdDeviation="36.8372" result="effect1_foregroundBlur_236_163"/>
</filter>
<filter id="filter4_f_236_163" x="15.0608" y="-35.1639" width="117.34" height="91.4914" filterUnits="userSpaceOnUse" color-interpolation-filters="sRGB">
<feFlood flood-opacity="0" result="BackgroundImageFix"/>
<feBlend mode="normal" in="SourceGraphic" in2="BackgroundImageFix" result="shape"/>
<feGaussianBlur stdDeviation="16.7442" result="effect1_foregroundBlur_236_163"/>
</filter>
<filter id="filter5_f_236_163" x="13.0295" y="8.02634" width="94.8546" height="94.8548" filterUnits="userSpaceOnUse" color-interpolation-filters="sRGB">
<feFlood flood-opacity="0" result="BackgroundImageFix"/>
<feBlend mode="normal" in="SourceGraphic" in2="BackgroundImageFix" result="shape"/>
<feGaussianBlur stdDeviation="17.9402" result="effect1_foregroundBlur_236_163"/>
</filter>
<filter id="filter6_f_236_163" x="-11.9074" y="72.6777" width="94.8546" height="94.8548" filterUnits="userSpaceOnUse" color-interpolation-filters="sRGB">
<feFlood flood-opacity="0" result="BackgroundImageFix"/>
<feBlend mode="normal" in="SourceGraphic" in2="BackgroundImageFix" result="shape"/>
<feGaussianBlur stdDeviation="17.9402" result="effect1_foregroundBlur_236_163"/>
</filter>
<filter id="filter7_f_236_163" x="83.4129" y="-29.5396" width="103.482" height="116.506" filterUnits="userSpaceOnUse" color-interpolation-filters="sRGB">
<feFlood flood-opacity="0" result="BackgroundImageFix"/>
<feBlend mode="normal" in="SourceGraphic" in2="BackgroundImageFix" result="shape"/>
<feGaussianBlur stdDeviation="17.9402" result="effect1_foregroundBlur_236_163"/>
</filter>
<linearGradient id="paint0_linear_236_163" x1="-21.9352" y1="73.6561" x2="19.8571" y2="208.5" gradientUnits="userSpaceOnUse">
<stop stop-color="white" stop-opacity="0.26"/>
<stop offset="1" stop-color="white" stop-opacity="0"/>
</linearGradient>
<radialGradient id="paint1_radial_236_163" cx="0" cy="0" r="1" gradientUnits="userSpaceOnUse" gradientTransform="translate(-27.0149 94.6678) rotate(60.219) scale(138.07)">
<stop stop-color="#FF6D03" stop-opacity="0"/>
<stop offset="0.62353" stop-color="#FF9900" stop-opacity="0"/>
<stop offset="1" stop-color="#FF6B00"/>
</radialGradient>
<radialGradient id="paint2_radial_236_163" cx="0" cy="0" r="1" gradientUnits="userSpaceOnUse" gradientTransform="translate(18.9336 220.276) rotate(-104.74) scale(173.335)">
<stop stop-color="#FF7527" stop-opacity="0"/>
<stop offset="0.62353" stop-color="#FF9C07" stop-opacity="0"/>
<stop offset="1" stop-color="#FFCA7A"/>
</radialGradient>
<linearGradient id="paint3_linear_236_163" x1="-36.02" y1="80.3522" x2="46.8721" y2="198.571" gradientUnits="userSpaceOnUse">
<stop stop-color="#FF8126"/>
<stop offset="0.890625" stop-color="#FF4D00"/>
<stop offset="0.9999" stop-color="#FD7A30"/>
</linearGradient>
<clipPath id="clip0_236_163">
<rect width="140" height="142" fill="white"/>
</clipPath>
</defs>
</svg>
